<svg width="24" height="24" viewBox="0 0 24 24" fill="none" xmlns="http://www.w3.org/2000/svg">
<circle cx="12.5" cy="11.5" r="10.5" fill="white"/>
<path d="M12.5 1C6.70156 1 2 5.70156 2 11.5C2 17.2984 6.70156 22 12.5 22C18.2984 22 23 17.2984 23 11.5C23 5.70156 18.2984 1 12.5 1ZM16.3766 15.4891L14.8297 15.482L12.5 12.7047L10.1727 15.4797L8.62344 15.4867C8.52031 15.4867 8.43594 15.4047 8.43594 15.2992C8.43594 15.2547 8.45234 15.2125 8.48047 15.1773L11.5297 11.5445L8.48047 7.91406C8.45215 7.87971 8.43643 7.8367 8.43594 7.79219C8.43594 7.68906 8.52031 7.60469 8.62344 7.60469L10.1727 7.61172L12.5 10.3891L14.8273 7.61406L16.3742 7.60703C16.4773 7.60703 16.5617 7.68906 16.5617 7.79453C16.5617 7.83906 16.5453 7.88125 16.5172 7.91641L13.4727 11.5469L16.5195 15.1797C16.5477 15.2148 16.5641 15.257 16.5641 15.3016C16.5641 15.4047 16.4797 15.4891 16.3766 15.4891Z" fill="#969696" fill-opacity="0.39"/>
</svg>
