<svg width="13" height="16" viewBox="0 0 13 16" fill="none" xmlns="http://www.w3.org/2000/svg">
<path d="M6.5 0C10.09 0 13 2.94801 13 6.5849C13 9.36745 11.07 12.3999 7.26 15.7146C7.04815 15.899 6.77804 16.0002 6.49875 16C6.21947 15.9998 5.94953 15.898 5.738 15.7133L5.486 15.4917C1.84467 12.2635 0 9.30531 0 6.5849C0 2.94801 2.91 0 6.5 0ZM6.5 4.05225C5.83696 4.05225 5.20107 4.31908 4.73223 4.79405C4.26339 5.26901 4 5.9132 4 6.5849C4 7.25661 4.26339 7.9008 4.73223 8.37576C5.20107 8.85073 5.83696 9.11756 6.5 9.11756C7.16304 9.11756 7.79893 8.85073 8.26777 8.37576C8.73661 7.9008 9 7.25661 9 6.5849C9 5.9132 8.73661 5.26901 8.26777 4.79405C7.79893 4.31908 7.16304 4.05225 6.5 4.05225Z" fill="#417CBF"/>
</svg>
